<svg width="214" height="75" viewBox="0 0 214 75" fill="none" xmlns="http://www.w3.org/2000/svg">
<g clip-path="url(#clip0_3094_985)">
<path d="M28.9466 38.156C28.8871 38.242 28.675 38.2549 28.4206 38.156C28.166 38.0572 27.9879 37.8123 27.9157 37.8252C27.8437 37.8381 27.9242 38.199 27.9964 38.4398C28.0684 38.6847 28.3611 39.1102 28.4885 39.381C28.6157 39.6517 28.7599 40.0514 28.658 40.1115C28.5562 40.1675 28.429 40.1115 28.429 40.1115C28.429 40.1115 28.5139 40.3265 28.3866 40.3695C28.2594 40.4124 28.0897 40.2062 28.0897 40.2062L27.8776 39.9826C27.8776 39.9826 28.0811 40.3308 28.0345 40.4683C28.0006 40.5628 27.8903 40.5671 27.8903 40.5671C27.8903 40.5671 27.7545 40.5714 27.5764 40.2792C27.4661 40.0986 27.0716 39.3251 27.0716 39.3251C27.0716 39.3251 27.2201 40.0256 27.2201 40.2019C27.2201 40.3781 27.1649 40.4167 27.0929 40.4339C27.0207 40.4468 26.9105 40.2062 26.796 39.8194C26.6814 39.4325 26.482 39.0457 26.3675 38.7621C26.253 38.4741 26.0833 38.2463 26.0409 37.9326C25.9984 37.6188 25.7015 36.9871 25.7015 36.9871C25.7015 36.9871 25.29 36.2994 24.9337 35.4011C24.5774 34.4987 24.238 33.3855 24.238 33.3855C24.238 33.3855 24.1065 32.7452 24.0938 32.4615C24.0811 32.1779 23.958 31.7868 23.958 31.7868C23.958 31.7868 23.8392 32.5173 23.8562 32.9471C23.869 33.3769 23.9707 34.2923 24.0132 34.778C24.0556 35.2636 24.2677 35.9943 24.4417 36.9055C24.6198 37.8639 24.9337 38.8352 24.8785 40.421C24.8235 42.05 24.7683 41.878 24.6961 43.0642C24.6241 44.2504 24.5349 44.4179 24.4967 45.2088C24.467 45.9094 24.7513 46.6227 24.7936 47.7532C24.8362 48.8834 24.3822 51.561 24.2975 52.2314C24.2126 52.9018 24.2126 53.2027 24.2677 53.7184C24.3228 54.2341 24.395 54.5608 24.395 54.7628C24.395 54.9648 24.5222 55.2054 24.6664 55.3903C24.8106 55.5751 25.0779 55.9361 25.0779 56.0607C25.0779 56.2627 25.0059 56.585 24.5222 56.585C23.992 56.585 23.8265 56.6366 23.5975 56.5979C23.4024 56.5636 23.2115 56.5936 23.114 56.3487C23.0121 56.1037 22.9994 55.8329 23.0291 55.4763C23.0588 55.1195 23.0588 54.4749 22.9994 54.2041C22.9442 53.9334 22.8424 53.8602 22.9019 53.6325C22.9569 53.4046 23.0884 52.5882 23.0715 52.1326C23.0588 51.677 22.4352 49.3261 22.4097 48.7545C22.38 48.1828 22.4395 47.5339 22.4395 47.1385C22.4395 46.6099 22.2741 46.266 22.1595 45.9094C22.045 45.5526 21.9007 44.8005 21.8329 43.7733C21.7608 42.7419 21.5571 42.6559 21.4426 41.4825C21.328 40.3093 21.2517 39.4497 21.2517 39.4497C21.2517 39.4497 21.0779 39.4798 20.9887 39.4798C20.9039 39.4798 20.7257 39.4497 20.7257 39.4497C20.7257 39.4497 20.6451 40.3136 20.5349 41.4825C20.4204 42.6559 20.2167 42.7419 20.1445 43.7733C20.0725 44.8005 19.9282 45.5526 19.8179 45.9094C19.7034 46.266 19.538 46.6099 19.538 47.1385C19.538 47.5339 19.5974 48.1828 19.5676 48.7545C19.538 49.3261 18.9187 51.6727 18.906 52.1326C18.8932 52.5925 19.0205 53.4046 19.0756 53.6325C19.135 53.8602 19.0332 53.9334 18.978 54.2041C18.923 54.4749 18.923 55.1195 18.9483 55.4763C18.978 55.8329 18.961 56.1037 18.8635 56.3487C18.7617 56.5893 18.5751 56.5636 18.38 56.5979C18.1509 56.6366 17.9812 56.585 17.4552 56.585C16.9716 56.585 16.8996 56.2627 16.8996 56.0607C16.8996 55.9361 17.171 55.5751 17.311 55.3903C17.4552 55.2054 17.5824 54.9605 17.5824 54.7628C17.5824 54.5651 17.6546 54.2341 17.7097 53.7184C17.7649 53.2027 17.7649 52.9018 17.68 52.2314C17.5951 51.561 17.1413 48.8834 17.1837 47.7532C17.2262 46.6227 17.5145 45.9094 17.4849 45.2088C17.4509 44.4179 17.3577 44.2504 17.2855 43.0642C17.2135 41.878 17.1626 42.05 17.1031 40.421C17.048 38.8352 17.3619 37.8639 17.5401 36.9055C17.7097 35.99 17.926 35.2636 17.9685 34.778C18.0109 34.2923 18.1127 33.3769 18.1254 32.9471C18.1381 32.5173 18.0236 31.7868 18.0236 31.7868C18.0236 31.7868 17.9006 32.1779 17.8879 32.4615C17.8751 32.7452 17.7436 33.3855 17.7436 33.3855C17.7436 33.3855 17.4 34.4987 17.048 35.4011C16.6916 36.2994 16.2801 36.9871 16.2801 36.9871C16.2801 36.9871 15.9791 37.6145 15.9408 37.9283C15.8985 38.242 15.7288 38.4698 15.6142 38.7578C15.4997 39.0457 15.3003 39.4282 15.1858 39.8151C15.0713 40.2019 14.961 40.4425 14.8888 40.4296C14.8167 40.4167 14.7616 40.3738 14.7616 40.1976C14.7616 40.0213 14.9101 39.3208 14.9101 39.3208C14.9101 39.3208 14.5156 40.0943 14.4053 40.2749C14.2271 40.5671 14.0914 40.5628 14.0914 40.5628C14.0914 40.5628 13.9811 40.5585 13.9472 40.464C13.9005 40.3265 14.1041 39.9783 14.1041 39.9783L13.892 40.2019C13.892 40.2019 13.7223 40.4081 13.5908 40.3652C13.4636 40.3222 13.5484 40.1072 13.5484 40.1072C13.5484 40.1072 13.4212 40.1632 13.3194 40.1072C13.2218 40.0514 13.3618 39.6517 13.489 39.3767C13.6163 39.1059 13.909 38.6804 13.9811 38.4355C14.0532 38.1904 14.1296 37.8338 14.0574 37.8209C13.9853 37.808 13.8072 38.0529 13.5527 38.1518C13.2981 38.2506 13.0818 38.2377 13.0267 38.1518C12.9715 38.0658 13.1157 37.9928 13.4296 37.7649C13.7435 37.5372 13.8157 37.2191 14.0447 37.1375C14.2738 37.0516 14.7829 36.9785 14.9271 36.8668C15.0713 36.7507 15.4404 35.4657 15.5549 34.95C15.6694 34.4341 15.6566 33.6048 15.784 33.1062C15.9112 32.6077 16.2378 32.036 16.3947 31.4644C16.5517 30.8928 16.6069 30.1063 16.6069 30.1063C16.6916 29.6507 16.6196 28.9201 16.5771 28.6192C16.5347 28.3185 16.4795 27.4761 16.7214 27.0033C16.9632 26.5306 17.4467 26.3027 17.9006 26.1609C18.3545 26.0191 18.8295 25.787 19.1987 25.5893C19.5676 25.3873 19.8222 25.035 19.8222 24.545C19.8222 23.7628 19.678 23.2986 19.678 23.2986C19.678 23.2986 19.5932 23.2986 19.4659 23.1697C19.3471 23.0535 19.1944 22.7829 19.1647 22.512C19.135 22.2414 19.0502 21.9534 19.1647 21.9276C19.2792 21.8975 19.4065 22.0006 19.4065 22.0006C19.4065 22.0006 19.275 21.0852 19.3641 20.7372C19.504 20.174 19.7797 19.9592 20.2167 19.7788C20.3779 19.7142 20.5985 19.6841 20.7809 19.6712C20.7809 19.6712 20.8529 19.6626 20.9591 19.6626C21.0566 19.6626 21.1245 19.6626 21.1245 19.6626C21.1245 19.6626 21.5614 19.7099 21.7311 19.7788C22.1679 19.9549 22.4436 20.174 22.5837 20.7372C22.6727 21.0895 22.5412 22.0006 22.5412 22.0006C22.5412 22.0006 22.6686 21.9018 22.7831 21.9276C22.8976 21.9576 22.8127 22.2414 22.7831 22.512C22.7534 22.7829 22.6049 23.0535 22.4861 23.1697C22.3589 23.2943 22.2741 23.2986 22.2741 23.2986C22.2741 23.2986 22.134 23.7628 22.134 24.545C22.134 25.0307 22.3886 25.3873 22.7575 25.5893C23.1267 25.787 23.6271 26.0191 24.0811 26.1609C24.5349 26.3027 25.0186 26.5306 25.2646 27.0033C25.5063 27.4761 25.4511 28.3185 25.4088 28.6192C25.3664 28.9201 25.2943 29.6464 25.3791 30.1063C25.3791 30.1063 25.4342 30.8928 25.5912 31.4644C25.7481 32.036 26.0747 32.6077 26.2021 33.1062C26.3293 33.6048 26.3166 34.4341 26.4311 34.95C26.5456 35.4657 26.9146 36.7507 27.0589 36.8668C27.2031 36.9828 27.7122 37.0516 27.9412 37.1375C28.1703 37.2234 28.2424 37.5372 28.5562 37.7649C28.8701 37.9928 29.0145 38.0658 28.9593 38.1518L28.9466 38.156Z" fill="#2E00AB"/>
<mask id="mask0_3094_985" style="mask-type:luminance" maskUnits="userSpaceOnUse" x="13" y="19" width="16" height="38">
<path d="M28.9466 38.156C28.8871 38.242 28.675 38.2549 28.4206 38.156C28.166 38.0572 27.9879 37.8123 27.9157 37.8252C27.8437 37.8381 27.9242 38.199 27.9964 38.4398C28.0684 38.6847 28.3611 39.1102 28.4885 39.381C28.6157 39.6517 28.7599 40.0514 28.658 40.1115C28.5562 40.1675 28.429 40.1115 28.429 40.1115C28.429 40.1115 28.5139 40.3265 28.3866 40.3695C28.2594 40.4124 28.0897 40.2062 28.0897 40.2062L27.8776 39.9826C27.8776 39.9826 28.0811 40.3308 28.0345 40.4683C28.0006 40.5628 27.8903 40.5671 27.8903 40.5671C27.8903 40.5671 27.7545 40.5714 27.5764 40.2792C27.4661 40.0986 27.0716 39.3251 27.0716 39.3251C27.0716 39.3251 27.2201 40.0256 27.2201 40.2019C27.2201 40.3781 27.1649 40.4167 27.0929 40.4339C27.0207 40.4468 26.9105 40.2062 26.796 39.8194C26.6814 39.4325 26.482 39.0457 26.3675 38.7621C26.253 38.4741 26.0833 38.2463 26.0409 37.9326C25.9984 37.6188 25.7015 36.9871 25.7015 36.9871C25.7015 36.9871 25.29 36.2994 24.9337 35.4011C24.5774 34.4987 24.238 33.3855 24.238 33.3855C24.238 33.3855 24.1065 32.7452 24.0938 32.4615C24.0811 32.1779 23.958 31.7868 23.958 31.7868C23.958 31.7868 23.8392 32.5173 23.8562 32.9471C23.869 33.3769 23.9707 34.2923 24.0132 34.778C24.0556 35.2636 24.2677 35.9943 24.4417 36.9055C24.6198 37.8639 24.9337 38.8352 24.8785 40.421C24.8235 42.05 24.7683 41.878 24.6961 43.0642C24.6241 44.2504 24.5349 44.4179 24.4967 45.2088C24.467 45.9094 24.7513 46.6227 24.7936 47.7532C24.8362 48.8834 24.3822 51.561 24.2975 52.2314C24.2126 52.9018 24.2126 53.2027 24.2677 53.7184C24.3228 54.2341 24.395 54.5608 24.395 54.7628C24.395 54.9648 24.5222 55.2054 24.6664 55.3903C24.8106 55.5751 25.0779 55.9361 25.0779 56.0607C25.0779 56.2627 25.0059 56.585 24.5222 56.585C23.992 56.585 23.8265 56.6366 23.5975 56.5979C23.4024 56.5636 23.2115 56.5936 23.114 56.3487C23.0121 56.1037 22.9994 55.8329 23.0291 55.4763C23.0588 55.1195 23.0588 54.4749 22.9994 54.2041C22.9442 53.9334 22.8424 53.8602 22.9019 53.6325C22.9569 53.4046 23.0884 52.5882 23.0715 52.1326C23.0588 51.677 22.4352 49.3261 22.4097 48.7545C22.38 48.1828 22.4395 47.5339 22.4395 47.1385C22.4395 46.6099 22.2741 46.266 22.1595 45.9094C22.045 45.5526 21.9007 44.8005 21.8329 43.7733C21.7608 42.7419 21.5571 42.6559 21.4426 41.4825C21.328 40.3093 21.2517 39.4497 21.2517 39.4497C21.2517 39.4497 21.0779 39.4798 20.9887 39.4798C20.9039 39.4798 20.7257 39.4497 20.7257 39.4497C20.7257 39.4497 20.6451 40.3136 20.5349 41.4825C20.4204 42.6559 20.2167 42.7419 20.1445 43.7733C20.0725 44.8005 19.9282 45.5526 19.8179 45.9094C19.7034 46.266 19.538 46.6099 19.538 47.1385C19.538 47.5339 19.5974 48.1828 19.5676 48.7545C19.538 49.3261 18.9187 51.6727 18.906 52.1326C18.8932 52.5925 19.0205 53.4046 19.0756 53.6325C19.135 53.8602 19.0332 53.9334 18.978 54.2041C18.923 54.4749 18.923 55.1195 18.9483 55.4763C18.978 55.8329 18.961 56.1037 18.8635 56.3487C18.7617 56.5893 18.5751 56.5636 18.38 56.5979C18.1509 56.6366 17.9812 56.585 17.4552 56.585C16.9716 56.585 16.8996 56.2627 16.8996 56.0607C16.8996 55.9361 17.171 55.5751 17.311 55.3903C17.4552 55.2054 17.5824 54.9605 17.5824 54.7628C17.5824 54.5651 17.6546 54.2341 17.7097 53.7184C17.7649 53.2027 17.7649 52.9018 17.68 52.2314C17.5951 51.561 17.1413 48.8834 17.1837 47.7532C17.2262 46.6227 17.5145 45.9094 17.4849 45.2088C17.4509 44.4179 17.3577 44.2504 17.2855 43.0642C17.2135 41.878 17.1626 42.05 17.1031 40.421C17.048 38.8352 17.3619 37.8639 17.5401 36.9055C17.7097 35.99 17.926 35.2636 17.9685 34.778C18.0109 34.2923 18.1127 33.3769 18.1254 32.9471C18.1381 32.5173 18.0236 31.7868 18.0236 31.7868C18.0236 31.7868 17.9006 32.1779 17.8879 32.4615C17.8751 32.7452 17.7436 33.3855 17.7436 33.3855C17.7436 33.3855 17.4 34.4987 17.048 35.4011C16.6916 36.2994 16.2801 36.9871 16.2801 36.9871C16.2801 36.9871 15.9791 37.6145 15.9408 37.9283C15.8985 38.242 15.7288 38.4698 15.6142 38.7578C15.4997 39.0457 15.3003 39.4282 15.1858 39.8151C15.0713 40.2019 14.961 40.4425 14.8888 40.4296C14.8167 40.4167 14.7616 40.3738 14.7616 40.1976C14.7616 40.0213 14.9101 39.3208 14.9101 39.3208C14.9101 39.3208 14.5156 40.0943 14.4053 40.2749C14.2271 40.5671 14.0914 40.5628 14.0914 40.5628C14.0914 40.5628 13.9811 40.5585 13.9472 40.464C13.9005 40.3265 14.1041 39.9783 14.1041 39.9783L13.892 40.2019C13.892 40.2019 13.7223 40.4081 13.5908 40.3652C13.4636 40.3222 13.5484 40.1072 13.5484 40.1072C13.5484 40.1072 13.4212 40.1632 13.3194 40.1072C13.2218 40.0514 13.3618 39.6517 13.489 39.3767C13.6163 39.1059 13.909 38.6804 13.9811 38.4355C14.0532 38.1904 14.1296 37.8338 14.0574 37.8209C13.9853 37.808 13.8072 38.0529 13.5527 38.1518C13.2981 38.2506 13.0818 38.2377 13.0267 38.1518C12.9715 38.0658 13.1157 37.9928 13.4296 37.7649C13.7435 37.5372 13.8157 37.2191 14.0447 37.1375C14.2738 37.0516 14.7829 36.9785 14.9271 36.8668C15.0713 36.7507 15.4404 35.4657 15.5549 34.95C15.6694 34.4341 15.6566 33.6048 15.784 33.1062C15.9112 32.6077 16.2378 32.036 16.3947 31.4644C16.5517 30.8928 16.6069 30.1063 16.6069 30.1063C16.6916 29.6507 16.6196 28.9201 16.5771 28.6192C16.5347 28.3185 16.4795 27.4761 16.7214 27.0033C16.9632 26.5306 17.4467 26.3027 17.9006 26.1609C18.3545 26.0191 18.8295 25.787 19.1987 25.5893C19.5676 25.3873 19.8222 25.035 19.8222 24.545C19.8222 23.7628 19.678 23.2986 19.678 23.2986C19.678 23.2986 19.5932 23.2986 19.4659 23.1697C19.3471 23.0535 19.1944 22.7829 19.1647 22.512C19.135 22.2414 19.0502 21.9534 19.1647 21.9276C19.2792 21.8975 19.4065 22.0006 19.4065 22.0006C19.4065 22.0006 19.275 21.0852 19.3641 20.7372C19.504 20.174 19.7797 19.9592 20.2167 19.7788C20.3779 19.7142 20.5985 19.6841 20.7809 19.6712C20.7809 19.6712 20.8529 19.6626 20.9591 19.6626C21.0566 19.6626 21.1245 19.6626 21.1245 19.6626C21.1245 19.6626 21.5614 19.7099 21.7311 19.7788C22.1679 19.9549 22.4436 20.174 22.5837 20.7372C22.6727 21.0895 22.5412 22.0006 22.5412 22.0006C22.5412 22.0006 22.6686 21.9018 22.7831 21.9276C22.8976 21.9576 22.8127 22.2414 22.7831 22.512C22.7534 22.7829 22.6049 23.0535 22.4861 23.1697C22.3589 23.2943 22.2741 23.2986 22.2741 23.2986C22.2741 23.2986 22.134 23.7628 22.134 24.545C22.134 25.0307 22.3886 25.3873 22.7575 25.5893C23.1267 25.787 23.6271 26.0191 24.0811 26.1609C24.5349 26.3027 25.0186 26.5306 25.2646 27.0033C25.5063 27.4761 25.4511 28.3185 25.4088 28.6192C25.3664 28.9201 25.2943 29.6464 25.3791 30.1063C25.3791 30.1063 25.4342 30.8928 25.5912 31.4644C25.7481 32.036 26.0747 32.6077 26.2021 33.1062C26.3293 33.6048 26.3166 34.4341 26.4311 34.95C26.5456 35.4657 26.9146 36.7507 27.0589 36.8668C27.2031 36.9828 27.7122 37.0516 27.9412 37.1375C28.1703 37.2234 28.2424 37.5372 28.5562 37.7649C28.8701 37.9928 29.0145 38.0658 28.9593 38.1518L28.9466 38.156Z" fill="white"/>
</mask>
<g mask="url(#mask0_3094_985)">
<path d="M34.024 17.9219H7.94043V58.7768H34.024V17.9219Z" fill="#2E00AB"/>
</g>
<path d="M25.3751 2.06792C25.3751 3.19395 24.4758 4.10508 23.3644 4.10508C22.253 4.10508 21.3538 3.19395 21.3538 2.06792C21.3538 0.941896 22.253 0.0307617 23.3644 0.0307617C24.4758 0.0307617 25.3751 0.941896 25.3751 2.06792ZM17.9941 8.98309C16.255 8.98309 14.8467 10.41 14.8467 12.1721C14.8467 13.9342 16.255 15.361 17.9941 15.361C19.7333 15.361 21.1417 13.9342 21.1417 12.1721C21.1417 10.41 19.7333 8.98309 17.9941 8.98309ZM10.8296 17.4025C8.81043 17.4025 7.17307 19.0614 7.17307 21.1071C7.17307 23.153 8.81043 24.8119 10.8296 24.8119C12.8487 24.8119 14.4861 23.153 14.4861 21.1071C14.4861 19.0614 12.8487 17.4025 10.8296 17.4025ZM5.15815 27.3303C3.13901 27.3303 1.50163 28.9894 1.50163 31.0351C1.50163 33.0809 3.13901 34.7398 5.15815 34.7398C7.17731 34.7398 8.81468 33.0809 8.81468 31.0351C8.81468 28.9894 7.17731 27.3303 5.15815 27.3303ZM3.1178 39.2483C1.39559 39.2483 0 40.6622 0 42.4071C0 44.152 1.39559 45.566 3.1178 45.566C4.84001 45.566 6.2356 44.152 6.2356 42.4071C6.2356 40.6622 4.84001 39.2483 3.1178 39.2483ZM4.51339 51.6517C3.41049 51.6517 2.51969 52.5543 2.51969 53.6716C2.51969 54.789 3.41049 55.6916 4.51339 55.6916C5.61629 55.6916 6.50709 54.789 6.50709 53.6716C6.50709 52.5543 5.61629 51.6517 4.51339 51.6517Z" fill="#2E00AB"/>
<mask id="mask1_3094_985" style="mask-type:luminance" maskUnits="userSpaceOnUse" x="17" y="18" width="27" height="57">
<path d="M17.6924 72.0743C17.6924 70.9482 18.5916 70.037 19.7029 70.037C20.8144 70.037 21.7137 70.9482 21.7137 72.0743C21.7137 73.2002 20.8144 74.1114 19.7029 74.1114C18.5916 74.1114 17.6924 73.2002 17.6924 72.0743ZM25.0732 65.159C26.8125 65.159 28.2207 63.7322 28.2207 61.97C28.2207 60.208 26.8125 58.7812 25.0732 58.7812C23.334 58.7812 21.9257 60.208 21.9257 61.97C21.9257 63.7322 23.334 65.159 25.0732 65.159ZM32.2377 56.7396C34.257 56.7396 35.8943 55.0807 35.8943 53.035C35.8943 50.9892 34.257 49.3303 32.2377 49.3303C30.2186 49.3303 28.5813 50.9892 28.5813 53.035C28.5813 55.0807 30.2186 56.7396 32.2377 56.7396ZM37.9092 46.8118C39.9284 46.8118 41.5658 45.1528 41.5658 43.1071C41.5658 41.0612 39.9284 39.4024 37.9092 39.4024C35.89 39.4024 34.2527 41.0612 34.2527 43.1071C34.2527 45.1528 35.89 46.8118 37.9092 46.8118ZM39.9496 34.8939C41.6717 34.8939 43.0675 33.4799 43.0675 31.7351C43.0675 29.9901 41.6717 28.5762 39.9496 28.5762C38.2274 28.5762 36.8318 29.9901 36.8318 31.7351C36.8318 33.4799 38.2274 34.8939 39.9496 34.8939ZM38.554 22.4861C39.6569 22.4861 40.5477 21.5836 40.5477 20.4662C40.5477 19.3488 39.6569 18.4463 38.554 18.4463C37.4511 18.4463 36.5602 19.3488 36.5602 20.4662C36.5602 21.5836 37.4511 22.4861 38.554 22.4861Z" fill="white"/>
</mask>
<g mask="url(#mask1_3094_985)">
<path d="M6.15088 77.1755H62.2416V6.13721H6.15088V77.1755Z" fill="#2E00AB"/>
<path d="M29.5605 45.6815L40.0926 50.753L45.098 40.0822L34.5659 35.0107L29.5605 45.6815Z" fill="#2E00AB"/>
</g>
<mask id="mask2_3094_985" style="mask-type:luminance" maskUnits="userSpaceOnUse" x="1" y="27" width="8" height="8">
<path d="M5.15799 34.7394C7.17743 34.7394 8.81451 33.0808 8.81451 31.0347C8.81451 28.9887 7.17743 27.3301 5.15799 27.3301C3.13854 27.3301 1.50146 28.9887 1.50146 31.0347C1.50146 33.0808 3.13854 34.7394 5.15799 34.7394Z" fill="white"/>
</mask>
<g mask="url(#mask2_3094_985)">
<path d="M-0.350586 33.0161L7.11265 36.6098L10.6596 29.0482L3.1964 25.4546L-0.350586 33.0161Z" fill="#2E00AB"/>
</g>
<path d="M205.596 28.2067C207.03 29.38 207.913 31.0003 208.214 33.0116H205.29C204.96 31.6708 204.328 30.665 203.391 30.0247C202.452 29.3843 201.295 29.0748 199.861 29.0748C197.74 29.0748 196.141 29.8012 195.064 31.2797C194.046 32.6206 193.55 34.4642 193.55 36.7808C193.55 39.0973 194.046 41.027 195.037 42.3379C196.085 43.7347 197.71 44.4308 199.917 44.4308C201.35 44.4308 202.563 44.0656 203.5 43.3435C204.493 42.5614 205.181 41.3881 205.566 39.8237H208.488C208.049 42.1402 207.03 43.9581 205.401 45.2689C203.887 46.4982 202.067 47.1127 199.942 47.1127C196.718 47.1127 194.292 46.0512 192.663 43.984C191.228 42.1961 190.542 39.7936 190.542 36.7765C190.542 33.7595 191.258 31.4129 192.747 29.5433C194.401 27.4203 196.773 26.3887 199.917 26.3887C202.203 26.3887 204.107 26.9733 205.596 28.2024V28.2067Z" fill="#2E00AB"/>
<path d="M161.094 26.7842V46.726H158.116V26.7842H161.094Z" fill="#2E00AB"/>
<path d="M69.7374 37.6404C69.0756 36.8281 68.0829 36.2995 66.7892 36.0503C67.7819 35.6892 68.5242 35.1306 69.0756 34.4042C69.627 33.622 69.9028 32.6722 69.9028 31.5547C69.9028 30.0204 69.381 28.8171 68.3332 27.9232C67.2303 26.9733 65.7415 26.5264 63.8113 26.5264H54.8228V29.1351H57.8261V29.0405H63.0649C64.3883 29.0405 65.3809 29.2641 65.9875 29.7369C66.5941 30.1837 66.8953 30.9101 66.8953 31.9158C66.8953 32.9773 66.5941 33.7595 65.9875 34.2624C65.3809 34.7394 64.3883 34.9888 63.0097 34.9888H59.4592H54.8228V46.4682H63.8113C65.9069 46.4682 67.5316 46.077 68.6895 45.2948C70.0385 44.345 70.7299 42.8923 70.7299 40.881C70.7299 39.5401 70.399 38.4527 69.7374 37.6404ZM66.3734 43.3393C65.6566 43.7304 64.664 43.9538 63.3957 43.9538H57.8261V37.4729H63.4763C64.91 37.4729 65.9832 37.7264 66.6747 38.255C67.3618 38.7837 67.7224 39.6518 67.7224 40.8251C67.7224 41.9984 67.2516 42.8064 66.3734 43.3393Z" fill="#2E00AB"/>
<path d="M115.741 29.4918C114.086 27.6781 111.689 26.7842 108.517 26.7842H101.348V29.393H104.351V29.3801H107.961C110.442 29.3801 112.262 29.9646 113.42 31.1681C114.523 32.3413 115.1 34.1851 115.1 36.7551C115.1 39.3253 114.523 41.113 113.391 42.3122C112.232 43.5113 110.387 44.1259 107.906 44.1259H104.351V35.2466H101.348V46.726H108.461C111.63 46.726 114.031 45.832 115.685 44.0443C117.255 42.3122 118.057 39.8839 118.057 36.7551C118.057 33.6264 117.285 31.1681 115.741 29.4918Z" fill="#2E00AB"/>
<path d="M93.1101 29.092C91.3751 27.1107 89.0039 26.1309 86.0261 26.1309C83.0482 26.1309 80.6516 27.1065 78.9421 29.1178C77.2876 31.0174 76.4902 33.4757 76.4902 36.5187C76.4902 39.5614 77.2919 41.994 78.9421 43.8936C80.6516 45.8491 83.0227 46.8549 86.0261 46.8549C89.0293 46.8549 91.3751 45.8793 93.1101 43.9237C94.7644 42.0241 95.5916 39.5657 95.5916 36.523C95.5916 33.48 94.7644 30.9659 93.1101 29.092ZM90.8787 42.1101C89.7504 43.4769 88.1215 44.1773 86.0261 44.1773C83.9305 44.1773 82.3059 43.4509 81.1479 42.0541C80.045 40.6876 79.4935 38.8438 79.4935 36.523C79.4935 34.2021 80.045 32.3326 81.1479 30.9659C82.3059 29.5132 83.9305 28.817 86.0261 28.817C88.1215 28.817 89.7461 29.4874 90.8787 30.8842C91.9816 32.2509 92.5585 34.1248 92.5585 36.5273C92.5585 38.9297 91.9816 40.7735 90.8787 42.1144V42.1101Z" fill="#2E00AB"/>
<mask id="mask3_3094_985" style="mask-type:luminance" maskUnits="userSpaceOnUse" x="84" y="34" width="4" height="4">
<path d="M87.541 34.585H84.5376V37.6277H87.541V34.585Z" fill="white"/>
</mask>
<g mask="url(#mask3_3094_985)">
<path d="M84.1509 38.0188H87.8243V34.2969H84.1509V38.0188Z" fill="#2E00AB"/>
</g>
<path d="M122.697 26.5264L130.502 38.5086V46.4682H133.476V38.0444L126.311 26.5264H122.697Z" fill="#2E00AB"/>
<path d="M140.822 26.5264H137.818V29.5692H140.822V26.5264Z" fill="#2E00AB"/>
<path d="M185.198 26.7842H182.194V29.8271H185.198V26.7842Z" fill="#2E00AB"/>
<path d="M172.022 26.7842H168.989V46.726H171.993V31.7267H172.103L182.275 46.726H185.457L172.022 26.7842Z" fill="#2E00AB"/>
<path d="M213.999 44.1772H210.996V47.22H213.999V44.1772Z" fill="#2E00AB"/>
</g>
<defs>
<clipPath id="clip0_3094_985">
<rect width="214" height="74.8559" fill="white"/>
</clipPath>
</defs>
</svg>
